<mxfile host="app.diagrams.net" modified="2023-10-02T05:57:40.433Z" agent="Mozilla/5.0 (Linux; Android 10; K) AppleWebKit/537.36 (KHTML, like Gecko) Chrome/117.0.0.0 Mobile Safari/537.36" version="22.0.0" etag="-MwlBBmyXXY6UGCjuvst" type="github">
  <diagram name="Page-1" id="1IGAcFQ6yB7fVnWPDUPD">
    <mxGraphModel>
      <root>
        <mxCell id="0" />
        <mxCell id="1" parent="0" />
      </root>
    </mxGraphModel>
  </diagram>
</mxfile>
